<?xml version="1.0" encoding="UTF-8"?><svg id="Capa_2" xmlns="http://www.w3.org/2000/svg" viewBox="0 0 176.9 177.21"><defs><style>.cls-1,.cls-2{stroke-width:0px; fill:#e7e7e7}.cls-2{fill:none;}</style></defs><g id="Capa_1-2"><path class="cls-2" d="m176.1,88.05c0,1.31-.03,2.6-.09,3.9,0,.13,0,.27-.02.4-1.75,36.46-25.68,67.11-58.58,78.74-.02,0-.03,0-.05.02-2.27.81-4.59,1.54-6.96,2.14-2.82.74-5.69,1.34-8.61,1.8-2.29.36-4.61.63-6.95.81-.14,0-.27.02-.4.03-2.11.15-4.23.23-6.38.23-12.14,0-23.69-2.46-34.2-6.89-.39-.16-.78-.34-1.17-.5C21.67,155.09,0,124.1,0,88.05,0,39.41,39.43,0,88.06,0c37.98,0,70.33,24.03,82.66,57.74.09.23.18.47.27.71,3.31,9.24,5.11,19.21,5.11,29.59Z"/><path class="cls-1" d="m114.91,84.88c2.97.36,5.92.77,8.89,1.12,17.66,2.09,35.35,4.16,53.01,6.26.06-1.31.09-2.62.09-3.94,0-10.48-1.81-20.55-5.14-29.87-.09-.24-.17-.49-.27-.72-25.4,4.94-50.8,9.9-76.2,14.87-1.04.2-1.55.1-2.06-.94-1.78-3.61-5.42-5.42-9.24-4.75-3.79.64-6.85,3.64-7.05,7.63-.14,2.96-.15,10.2-.12,17.06h-7.45v7.9h-5.1c-.05-.24-.1-.34-.1-.45,0-12.21-.02-24.42.04-36.63,0-.53.49-1.24.97-1.53,6.48-3.88,13.02-7.68,19.5-11.55.77-.46,1.28-.38,1.98.08,5.96,3.84,11.92,7.66,17.9,11.45.8.5,1.2,1.06,1.13,2.03-.09,1.25-.03,2.49-.03,3.95,2.46-.49,4.69-.92,6.99-1.36,0-2.2-.06-4.19.03-6.18.05-1.15-.34-1.8-1.31-2.42-6.95-4.41-13.86-8.9-20.82-13.31-.97-.61-1.33-1.24-1.31-2.39.05-5.41-.02-10.83.03-16.25.02-1.21-.36-1.57-1.52-1.52-1.72.1-3.46.1-5.19,0-1.28-.06-1.72.31-1.71,1.67.07,5.57,0,11.16.07,16.75.02,1.22-.41,1.87-1.44,2.46-6.84,3.97-13.64,8.06-20.51,12.01-1.35.77-1.87,1.58-1.86,3.18.09,12.75.04,25.48.04,38.22v1.82h-3.67v-7.92h-8.96c-.04.36-.11.62-.11.88,0,9.74.02,19.48,0,29.21,0,.95.29,1.31,1.26,1.28,1.81-.07,3.62-.03,5.65-.03v12.77h5.3c-.06.64-.1,1.1-.16,1.56-.88,7.68-1.79,15.36-2.66,23.04-.36,3.15-.71,6.31-1.07,9.45.39.16.79.34,1.18.5,10.58,4.47,22.2,6.95,34.41,6.95,2.16,0,4.3-.08,6.42-.23v-.84h7.39c2.94-.46,5.83-1.07,8.67-1.81,2.39-.61,4.72-1.34,7-2.16-.18-1.54-.37-3.07-.57-4.64h-22.35v-9.42h21.26c-.24-2.06-.51-3.94-.63-5.81-.09-1.16-.55-1.47-1.67-1.45-5.35.05-10.71,0-16.06,0h-2.73v-9.45h19.1c-.22-2.23-.42-4.23-.64-6.45h4.91v-1.74c0-2.59.07-5.16-.03-7.73-.05-1.35.42-1.76,1.7-1.66,1.14.1,2.32-.08,3.46.04,1.46.15,1.85-.37,1.85-1.84-.07-9.74-.04-19.47-.04-29.21v-1.76h-9.34v7.56h-3.23v-13.88c.78.05,1.45.07,2.12.15Zm-9.22,12.72c0,.34-.12.69-.18,1.03h-5.94v-7.14h-5.34v-9.02c3.62.43,7.07.83,10.48,1.2.98.1.99.73.99,1.46,0,4.16,0,8.31,0,12.48Z"/></g></svg>