<?xml version="1.0" encoding="UTF-8"?><svg id="Capa_2" xmlns="http://www.w3.org/2000/svg" viewBox="0 0 378.18 111.12"><defs><style>.cls-1{fill:#f6faf2;stroke-width:0px;}</style></defs><g id="Capa_1-2"><path class="cls-1" d="m164.47,35.13v38.47h-15v-38.47h15Z"/><path class="cls-1" d="m184.21,47.81c0,.55.47.97,1.42,1.26s2.22.49,3.84.62,3.43.23,5.45.33c2.18.1,4.45.23,6.81.42s4.67.48,6.91.89,4.27,1,6.08,1.77,3.26,1.79,4.35,3.06,1.63,2.87,1.63,4.79c0,2.19-.47,4.07-1.4,5.64s-2.23,2.86-3.89,3.89-3.59,1.85-5.78,2.45-4.57,1.02-7.13,1.26c-2.56.24-5.19.36-7.9.36-3.38,0-6.56-.15-9.56-.46s-5.67-.93-8.01-1.86c-2.35-.93-4.26-2.31-5.74-4.12s-2.41-4.2-2.79-7.16h15.71c.57.99,1.37,1.76,2.4,2.3s2.23.92,3.59,1.13,2.83.31,4.39.31c1.16,0,2.36-.06,3.58-.17s2.35-.31,3.38-.59,1.86-.66,2.49-1.14.94-1.1.94-1.85c0-.57-.47-1-1.42-1.27s-2.22-.48-3.84-.62-3.43-.25-5.45-.34c-2.18-.1-4.45-.23-6.81-.42s-4.67-.48-6.91-.89-4.27-1-6.08-1.77c-1.81-.77-3.26-1.79-4.35-3.05s-1.63-2.85-1.63-4.78c0-2.21.47-4.1,1.4-5.65s2.23-2.85,3.89-3.89,3.59-1.86,5.78-2.45,4.57-1.01,7.13-1.26,5.19-.37,7.9-.37c3.38,0,6.56.16,9.56.47s5.67.93,8.01,1.86c2.35.93,4.26,2.29,5.74,4.11s2.41,4.21,2.79,7.18h-15.71c-.57-1.01-1.37-1.79-2.4-2.33s-2.23-.92-3.59-1.12-2.83-.3-4.39-.3c-1.16,0-2.36.05-3.58.16s-2.35.3-3.38.57-1.86.66-2.49,1.14-.94,1.11-.94,1.87Z"/><path class="cls-1" d="m239.71,35.13v26.27h30.02v12.19h-45.02v-38.47h15Z"/><path class="cls-1" d="m291.51,35.19h17.83l20.64,38.47h-16.89l-3.03-6.58h-19.26l-3.03,6.58h-16.89l20.64-38.47Zm3.63,22.5h10.56l-5.27-11.36-5.29,11.36Z"/><path class="cls-1" d="m349.1,48.98l11.28-13.8h17.8l-21.58,25.33v13.14h-15v-13.14l-21.58-25.33h17.83l11.25,13.8Z"/><path class="cls-1" d="m35.64,86.26c.04-.29.06-.58.1-.98h-3.33v-7.99c-1.27,0-2.41-.03-3.55.02-.61.02-.79-.21-.79-.8.02-6.09,0-12.19,0-18.29,0-.16.04-.32.07-.55h5.63v4.96h2.3v-1.14c0-7.97.03-15.95-.03-23.92,0-1,.32-1.5,1.17-1.99,4.32-2.47,8.59-5.03,12.88-7.52.65-.37.92-.77.91-1.54-.05-3.5,0-7-.04-10.48,0-.85.27-1.08,1.08-1.04,1.09.06,2.18.06,3.26,0,.73-.03.97.2.96.95-.03,3.39.01,6.79-.02,10.17-.01.72.22,1.12.83,1.5,4.37,2.76,8.71,5.57,13.08,8.33.61.39.86.79.83,1.52-.06,1.24-.02,2.49-.02,3.87-1.44.28-2.84.55-4.39.85,0-.91-.04-1.69.02-2.47.04-.61-.21-.96-.71-1.27-3.76-2.37-7.5-4.76-11.24-7.17-.44-.29-.76-.34-1.24-.05-4.07,2.42-8.18,4.8-12.25,7.23-.3.18-.61.62-.61.96-.04,7.65-.03,15.29-.03,22.93,0,.07.03.13.06.28h3.2v-4.95h4.68c-.02-4.29-.01-8.83.08-10.68.12-2.5,2.05-4.37,4.43-4.77,2.4-.42,4.68.72,5.8,2.98.32.65.64.71,1.29.59,15.95-3.11,31.9-6.22,47.85-9.31C100.08,15.18,79.64,0,55.64,0,24.91,0,0,24.9,0,55.63c0,22.78,13.69,42.36,33.29,50.97.23-1.97.45-3.94.67-5.91.55-4.81,1.12-9.61,1.67-14.42Z"/><path class="cls-1" d="m66.43,62.08c.04-.21.11-.43.11-.65,0-2.61,0-5.2,0-7.81,0-.46,0-.85-.62-.91-2.15-.23-4.31-.48-6.58-.75v5.65h3.35v4.47h3.73Z"/><path class="cls-1" d="m59.67,111.12c.09,0,.17-.01.26-.02,1.48-.11,2.94-.28,4.39-.51h-4.64v.53Z"/><path class="cls-1" d="m72.33,53.47c-.42-.05-.84-.06-1.33-.09v8.69h2.03v-4.73h5.87v1.1c0,6.09-.02,12.19.03,18.28,0,.92-.24,1.24-1.16,1.15-.72-.08-1.46.03-2.17-.03-.8-.07-1.1.19-1.07,1.04.06,1.61.02,3.22.02,4.84v1.09h-3.08c.14,1.38.27,2.64.4,4.04h-11.99v5.91h1.72c3.36,0,6.72.03,10.09,0,.7-.01.99.18,1.05.91.08,1.17.24,2.35.4,3.64h-13.35v5.9h14.03c.12.98.24,1.94.36,2.91.01,0,.02,0,.03-.01,20.79-7.35,35.9-26.71,37.01-49.75,0-.08,0-.17.01-.25-11.09-1.31-22.2-2.61-33.29-3.92-1.86-.22-3.72-.47-5.58-.7Z"/><path class="cls-1" d="m157.29,98.87h-5.27l-1.09,2.48h-1.46l4.49-9.92h1.4l4.5,9.92h-1.49l-1.09-2.48Zm-.5-1.13l-2.14-4.86-2.14,4.86h4.28Z"/><path class="cls-1" d="m163.28,100.21l.52-1.11c.74.67,2,1.15,3.27,1.15,1.71,0,2.45-.67,2.45-1.53,0-2.42-6.01-.89-6.01-4.58,0-1.53,1.19-2.83,3.8-2.83,1.16,0,2.37.31,3.19.88l-.47,1.13c-.86-.55-1.84-.81-2.72-.81-1.69,0-2.41.71-2.41,1.57,0,2.42,6.01.91,6.01,4.55,0,1.52-1.22,2.82-3.84,2.82-1.52,0-3-.51-3.8-1.25Z"/><path class="cls-1" d="m183.02,100.11v1.23h-7.2v-9.92h7v1.23h-5.58v3.05h4.97v1.2h-4.97v3.2h5.78Z"/><path class="cls-1" d="m187.25,100.21l.52-1.11c.74.67,2,1.15,3.27,1.15,1.71,0,2.45-.67,2.45-1.53,0-2.42-6.01-.89-6.01-4.58,0-1.53,1.19-2.83,3.8-2.83,1.16,0,2.37.31,3.19.88l-.47,1.13c-.86-.55-1.84-.81-2.72-.81-1.69,0-2.41.71-2.41,1.57,0,2.42,6.01.91,6.01,4.55,0,1.52-1.22,2.82-3.84,2.82-1.52,0-3-.51-3.8-1.25Z"/><path class="cls-1" d="m198.98,96.39c0-2.9,2.24-5.07,5.28-5.07s5.26,2.15,5.26,5.07-2.24,5.07-5.26,5.07-5.28-2.17-5.28-5.07Zm9.12,0c0-2.2-1.64-3.81-3.84-3.81s-3.87,1.61-3.87,3.81,1.64,3.81,3.87,3.81,3.84-1.61,3.84-3.81Z"/><path class="cls-1" d="m221.16,101.35l-2.14-3.05c-.2.01-.41.03-.62.03h-2.45v3.02h-1.42v-9.92h3.87c2.58,0,4.14,1.3,4.14,3.46,0,1.53-.79,2.63-2.18,3.13l2.35,3.33h-1.54Zm-.04-6.46c0-1.42-.95-2.22-2.76-2.22h-2.41v4.46h2.41c1.81,0,2.76-.82,2.76-2.24Z"/><path class="cls-1" d="m234.87,100.11v1.23h-7.2v-9.92h7v1.23h-5.58v3.05h4.97v1.2h-4.97v3.2h5.78Z"/><path class="cls-1" d="m239.1,100.21l.52-1.11c.74.67,2,1.15,3.27,1.15,1.71,0,2.45-.67,2.45-1.53,0-2.42-6.01-.89-6.01-4.58,0-1.53,1.19-2.83,3.8-2.83,1.16,0,2.37.31,3.19.88l-.47,1.13c-.86-.55-1.84-.81-2.72-.81-1.69,0-2.41.71-2.41,1.57,0,2.42,6.01.91,6.01,4.55,0,1.52-1.22,2.82-3.84,2.82-1.52,0-3-.51-3.8-1.25Z"/><path class="cls-1" d="m258.29,91.43h4.18c3.19,0,5.35,2.01,5.35,4.96s-2.17,4.96-5.35,4.96h-4.18v-9.92Zm4.09,8.69c2.45,0,4.02-1.5,4.02-3.73s-1.57-3.73-4.02-3.73h-2.68v7.45h2.68Z"/><path class="cls-1" d="m280.03,100.11v1.23h-7.2v-9.92h7v1.23h-5.58v3.05h4.97v1.2h-4.97v3.2h5.78Z"/><path class="cls-1" d="m290.91,100.21l.52-1.11c.74.67,2,1.15,3.27,1.15,1.71,0,2.45-.67,2.45-1.53,0-2.42-6.01-.89-6.01-4.58,0-1.53,1.19-2.83,3.8-2.83,1.16,0,2.37.31,3.19.88l-.47,1.13c-.86-.55-1.84-.81-2.72-.81-1.69,0-2.41.71-2.41,1.57,0,2.42,6.01.91,6.01,4.55,0,1.52-1.22,2.82-3.84,2.82-1.52,0-3-.51-3.8-1.25Z"/><path class="cls-1" d="m310.65,100.11v1.23h-7.2v-9.92h7v1.23h-5.58v3.05h4.97v1.2h-4.97v3.2h5.78Z"/><path class="cls-1" d="m322.61,96.33h1.36v3.87c-.99.84-2.37,1.26-3.75,1.26-3.05,0-5.28-2.14-5.28-5.07s2.24-5.07,5.31-5.07c1.57,0,2.9.52,3.81,1.53l-.88.88c-.82-.79-1.76-1.15-2.88-1.15-2.29,0-3.95,1.6-3.95,3.81s1.66,3.81,3.94,3.81c.84,0,1.61-.18,2.32-.64v-3.23Z"/><path class="cls-1" d="m329.43,97.07v-5.64h1.42v5.58c0,2.2,1.01,3.19,2.79,3.19s2.81-.99,2.81-3.19v-5.58h1.37v5.64c0,2.88-1.57,4.39-4.19,4.39s-4.19-1.52-4.19-4.39Z"/><path class="cls-1" d="m350.2,101.35l-2.14-3.05c-.2.01-.41.03-.62.03h-2.45v3.02h-1.42v-9.92h3.87c2.58,0,4.14,1.3,4.14,3.46,0,1.53-.79,2.63-2.18,3.13l2.35,3.33h-1.54Zm-.04-6.46c0-1.42-.95-2.22-2.76-2.22h-2.41v4.46h2.41c1.81,0,2.76-.82,2.76-2.24Z"/><path class="cls-1" d="m355.9,96.39c0-2.9,2.24-5.07,5.28-5.07s5.26,2.15,5.26,5.07-2.24,5.07-5.26,5.07-5.28-2.17-5.28-5.07Zm9.12,0c0-2.2-1.64-3.81-3.84-3.81s-3.87,1.61-3.87,3.81,1.64,3.81,3.87,3.81,3.84-1.61,3.84-3.81Z"/><path class="cls-1" d="m370.54,100.21l.52-1.11c.74.67,2,1.15,3.27,1.15,1.71,0,2.45-.67,2.45-1.53,0-2.42-6.01-.89-6.01-4.58,0-1.53,1.19-2.83,3.8-2.83,1.16,0,2.37.31,3.19.88l-.47,1.13c-.86-.55-1.84-.81-2.72-.81-1.69,0-2.41.71-2.41,1.57,0,2.42,6.01.91,6.01,4.55,0,1.52-1.22,2.82-3.84,2.82-1.52,0-3-.51-3.8-1.25Z"/></g></svg>