<?xml version="1.0" encoding="UTF-8"?><svg id="Capa_2" xmlns="http://www.w3.org/2000/svg" viewBox="0 0 228.71 40.36"><defs><style>.cls-1{fill:#f6faf2;stroke-width:0px;}</style></defs><g id="Capa_1-2"><path class="cls-1" d="m15,.94v38.47H0V.94h15Z"/><path class="cls-1" d="m34.75,13.62c0,.55.47.97,1.42,1.26s2.22.49,3.84.62,3.43.23,5.45.33c2.18.1,4.45.23,6.81.42s4.67.48,6.91.89,4.27,1,6.08,1.77,3.26,1.79,4.35,3.06,1.63,2.87,1.63,4.79c0,2.19-.47,4.07-1.4,5.64s-2.23,2.86-3.89,3.89-3.59,1.85-5.78,2.45-4.57,1.02-7.13,1.26c-2.56.24-5.19.36-7.9.36-3.38,0-6.56-.15-9.56-.46s-5.67-.93-8.01-1.86c-2.35-.93-4.26-2.31-5.74-4.12s-2.41-4.2-2.79-7.16h15.71c.57.99,1.37,1.76,2.4,2.3s2.23.92,3.59,1.13,2.83.31,4.39.31c1.16,0,2.36-.06,3.58-.17s2.35-.31,3.38-.59,1.86-.66,2.49-1.14.94-1.1.94-1.85c0-.57-.47-1-1.42-1.27s-2.22-.48-3.84-.62-3.43-.25-5.45-.34c-2.18-.1-4.45-.23-6.81-.42s-4.67-.48-6.91-.89-4.27-1-6.08-1.77c-1.81-.77-3.26-1.79-4.35-3.05s-1.63-2.85-1.63-4.78c0-2.21.47-4.1,1.4-5.65s2.23-2.85,3.89-3.89,3.59-1.86,5.78-2.45,4.57-1.01,7.13-1.26,5.19-.37,7.9-.37c3.38,0,6.56.16,9.56.47s5.67.93,8.01,1.86c2.35.93,4.26,2.29,5.74,4.11s2.41,4.21,2.79,7.18h-15.71c-.57-1.01-1.37-1.79-2.4-2.33s-2.23-.92-3.59-1.12-2.83-.3-4.39-.3c-1.16,0-2.36.05-3.58.16s-2.35.3-3.38.57-1.86.66-2.49,1.14-.94,1.11-.94,1.87Z"/><path class="cls-1" d="m90.24.94v26.27h30.02v12.19h-45.02V.94h15Z"/><path class="cls-1" d="m142.04,1h17.83l20.64,38.47h-16.89l-3.03-6.58h-19.26l-3.03,6.58h-16.89L142.04,1Zm3.63,22.5h10.56l-5.27-11.36-5.29,11.36Z"/><path class="cls-1" d="m199.63,14.8l11.28-13.8h17.8l-21.58,25.33v13.14h-15v-13.14L170.55,1h17.83l11.25,13.8Z"/></g></svg>